<?xml version="1.0" encoding="utf-8"?>
<!-- Generator: Adobe Illustrator 27.0.1, SVG Export Plug-In . SVG Version: 6.00 Build 0)  -->
<svg version="1.1" id="Capa_1" xmlns="http://www.w3.org/2000/svg" xmlns:xlink="http://www.w3.org/1999/xlink" x="0px" y="0px"
	 viewBox="0 0 22.29 22.69" style="enable-background:new 0 0 22.29 22.69;" xml:space="preserve">
<style type="text/css">
	.st0{fill:#FFFFFF;}
	.st1{fill:#FEFEFE;}
</style>
<path class="st0" d="M13.66,0.43c1.55,0.08,3.11-0.02,4.66,0.11c1.75,0.15,3.28,1.2,3.65,3.21c0.14,0.73,0.14,1.46,0.06,2.2
	c-0.07,0.66-0.1,1.32-0.15,1.97c-0.09,1.18-0.18,2.37-0.27,3.55c-0.07,0.91-0.13,1.81-0.2,2.72c-0.09,1.12-0.18,2.24-0.26,3.37
	c-0.08,1.01-0.16,2.01-0.22,3.02c-0.03,0.54-0.12,0.64-0.67,0.67c-1.32,0.08-2.65,0.18-3.97,0.27c-0.77,0.05-1.55,0.1-2.32,0.15
	c-1.29,0.09-2.59,0.18-3.88,0.27c-0.8,0.05-1.6,0.1-2.39,0.15c-0.8,0.05-1.59,0.14-2.39,0.17C4,22.3,2.76,22.15,1.7,21.31
	c-0.8-0.63-1.18-1.5-1.38-2.47c-0.17-0.81-0.12-1.62-0.07-2.43c0.03-0.39,0.04-0.78,0.06-1.16c0.02-0.61,0.06-1.23,0.04-1.84
	c-0.03-1.28,0.21-2.48,0.89-3.59c0.49-0.8,0.9-1.65,1.35-2.48c0.37-0.68,0.87-1.26,1.44-1.79C4.86,4.8,5.66,4.02,6.49,3.26
	C7,2.79,7.46,2.25,8.14,2c0.42-0.15,0.83-0.32,1.24-0.47c0.69-0.26,1.39-0.51,2.07-0.77C12.17,0.48,12.91,0.41,13.66,0.43z
	 M14.16,16.89c-0.47,0.21-0.89,0.51-1.33,0.76c-0.7,0.41-1.39,0.82-2.09,1.23c-0.25,0.15-0.03,0.27,0.01,0.4
	c0.05,0.15,0.15,0.09,0.24,0.03c0.2-0.13,0.4-0.24,0.59-0.37c0.91-0.62,1.8-1.27,2.6-2.03c0.01-0.01,0.03-0.03,0.02-0.03
	C14.19,16.86,14.18,16.87,14.16,16.89z M13.94,3.64c0-0.14,0.02-0.28,0-0.42c-0.03-0.21-0.05-0.44-0.22-0.6
	c-0.16-0.15-0.34-0.27-0.49-0.43c-0.27-0.31-0.62-0.36-0.99-0.35c-0.82,0.01-1.57,0.27-2.3,0.6C8.5,3.08,7.24,3.99,6.08,5.03
	C4.57,6.39,3.3,7.94,2.43,9.79c-0.39,0.84-0.68,1.72-0.63,2.67c0.05,0.8,0.51,1.37,1.26,1.49c0.39,0.06,0.79,0.04,1.18-0.06
	c1.43-0.38,2.73-1,3.81-2.04c0.94-0.9,1.89-1.78,2.84-2.66c0.38-0.36,0.79-0.69,1.12-1.09c0.55-0.68,0.99-1.43,1.36-2.22
	C13.69,5.16,13.96,4.43,13.94,3.64z M8.27,13.58c0.1,0.04,0.15,0.06,0.2,0.07c1.2,0.38,2.39,0.77,3.59,1.15
	c0.78,0.25,1.57,0.5,2.35,0.76c0.13,0.04,0.22,0,0.32-0.07c0.1-0.07,0.05-0.16,0.03-0.25c-0.51-2-1.01-4-1.52-6
	C13.19,9.06,13.15,9.03,13,9.18c-0.44,0.42-0.88,0.83-1.33,1.24c-0.72,0.67-1.45,1.34-2.17,2.01C9.1,12.8,8.7,13.18,8.27,13.58z
	 M19.9,7.31c0-0.02,0.01-0.04,0.01-0.07c-0.03-0.02-0.06-0.05-0.09-0.07C18.38,6,16.94,4.82,15.51,3.65
	c-0.14-0.12-0.18-0.07-0.22,0.08c-0.39,1.26-0.79,2.51-1.19,3.77c-0.02,0.06-0.07,0.12-0.01,0.2C16.02,7.57,17.96,7.44,19.9,7.31z
	 M4.91,20.52c0.61-2.01,1.2-3.95,1.79-5.9c0.05-0.16,0.01-0.21-0.17-0.17C5.32,14.73,4.11,15,2.9,15.27
	c-0.17,0.04-0.15,0.1-0.1,0.22c0.47,1.01,0.88,2.04,1.3,3.06C4.37,19.19,4.63,19.83,4.91,20.52z M18.93,13.07
	c-0.02-0.01-0.04-0.02-0.06-0.03c-0.01,0.03-0.02,0.06-0.04,0.08c-0.79,1.08-1.65,2.1-2.57,3.08c-0.14,0.15-0.03,0.21,0.06,0.29
	c0.95,0.84,1.89,1.68,2.85,2.52c0.23,0.2,0.43,0.42,0.71,0.6C19.56,17.41,19.24,15.24,18.93,13.07z M14.14,9.14
	c0.01,0.07,0.01,0.1,0.01,0.12c0.33,1.29,0.65,2.57,0.98,3.86c0.14,0.56,0.28,1.11,0.42,1.67c0.02,0.09,0.02,0.2,0.19,0.12
	c0.52-0.24,0.88-0.64,1.14-1.13c0.37-0.69,0.7-1.41,1.06-2.11c0.07-0.14,0.03-0.2-0.09-0.27c-0.55-0.33-1.09-0.66-1.63-1
	C15.53,9.99,14.85,9.57,14.14,9.14z M19.16,20.23c-0.02-0.05-0.03-0.07-0.05-0.08c-1.17-1.04-2.33-2.07-3.5-3.11
	c-0.12-0.11-0.19-0.03-0.27,0.04c-0.57,0.55-1.17,1.07-1.79,1.56c-0.44,0.35-0.91,0.67-1.42,1.04
	C14.51,19.86,16.82,20.04,19.16,20.23z M5.77,20.76c0.08,0.03,0.12-0.01,0.16-0.03c1.12-0.66,2.24-1.33,3.37-1.99
	c0.11-0.07,0.12-0.12,0.06-0.24c-0.59-1.13-1.17-2.26-1.76-3.39c-0.02-0.03-0.03-0.07-0.09-0.07C6.93,16.94,6.35,18.85,5.77,20.76z
	 M8.34,14.55c0.02,0.08,0.02,0.11,0.03,0.13c0.58,1.12,1.16,2.25,1.74,3.37c0.07,0.13,0.13,0.11,0.23,0.05
	c0.72-0.43,1.44-0.86,2.16-1.28c0.32-0.19,0.65-0.39,1.02-0.61C11.77,15.65,10.07,15.1,8.34,14.55z M16.67,3.41
	c0.01,0.05,0.01,0.06,0.01,0.06c1.22,1,2.44,2,3.65,3c0.1,0.08,0.14,0.04,0.18-0.05C20.68,6.1,20.81,5.77,21,5.48
	c0.27-0.4,0.21-0.82,0.16-1.26c-0.01-0.13-0.06-0.2-0.21-0.22c-0.95-0.13-1.9-0.27-2.86-0.4C17.63,3.54,17.16,3.47,16.67,3.41z
	 M14.94,8.56c0.01,0.02,0.01,0.04,0.02,0.05c1.1,0.68,2.21,1.36,3.31,2.04c0.11,0.07,0.14,0.01,0.19-0.07
	c0.36-0.72,0.71-1.45,1.08-2.17c0.08-0.17,0.01-0.18-0.13-0.17c-0.33,0.03-0.66,0.06-1,0.08c-0.84,0.05-1.67,0.09-2.51,0.16
	C15.59,8.5,15.26,8.46,14.94,8.56z M2.38,16.85c-0.01,0-0.03,0-0.04,0.01c-0.03,0.37-0.07,0.74-0.1,1.11
	c-0.06,0.7-0.11,1.39-0.18,2.09c-0.02,0.22,0.04,0.38,0.2,0.53C2.72,21,3.27,21.2,3.88,21.24c0.39,0.03,0.39,0.02,0.24-0.33
	c-0.26-0.6-0.51-1.2-0.77-1.8C3.02,18.36,2.7,17.6,2.38,16.85z M16.43,2.49c1.5,0.21,2.92,0.41,4.38,0.62
	c-0.03-0.08-0.05-0.12-0.07-0.16c-0.52-0.88-1.35-1.3-2.31-1.51c-0.06-0.01-0.11,0.01-0.15,0.03C17.69,1.79,17.09,2.12,16.43,2.49z
	 M20.31,16.51c0.01,0,0.03,0.01,0.04,0.01c0.17-2.24,0.34-4.47,0.51-6.71c-0.38,0.69-0.75,1.36-1.16,2.01
	c-0.04,0.06-0.06,0.12-0.04,0.2c0.05,0.34,0.1,0.67,0.15,1.01C19.98,14.19,20.14,15.35,20.31,16.51z M14.05,20.77
	c-0.06-0.09-0.14-0.08-0.22-0.08c-0.71-0.06-1.42-0.1-2.13-0.18c-0.55-0.06-1.08-0.08-1.55,0.28C10,20.89,9.8,20.92,9.62,21.07
	C11.12,20.97,12.57,20.87,14.05,20.77z M13.92,1.38c0.41,0.29,0.77,0.54,1.13,0.79c0.08,0.05,0.13,0,0.19-0.03
	c0.3-0.16,0.6-0.32,0.9-0.5c0.13-0.08,0.29-0.13,0.41-0.26C15.67,1.38,14.83,1.38,13.92,1.38z M1.43,17.19
	C1.27,17.46,1,17.68,1.08,18.04c0.07,0.3,0.05,0.62,0.19,0.95C1.33,18.36,1.38,17.77,1.43,17.19z M1.2,15.66
	c0.11-0.2,0.21-0.39,0.32-0.58c0.03-0.05,0.06-0.09,0.04-0.15c-0.1-0.28-0.19-0.55-0.29-0.83c-0.02,0-0.05,0.01-0.07,0.01
	C1.2,14.62,1.2,15.13,1.2,15.66z M8.6,20.16c0.1,0.03,0.17,0,0.24-0.02c0.3-0.1,0.61-0.19,0.91-0.29c0.08-0.03,0.21-0.01,0.22-0.13
	c0.01-0.09-0.05-0.19-0.13-0.24c-0.09-0.06-0.17,0.04-0.25,0.08C9.27,19.75,8.95,19.95,8.6,20.16z"/>
</svg>
