<?xml version="1.0" encoding="utf-8"?>
<!-- Generator: Adobe Illustrator 27.0.1, SVG Export Plug-In . SVG Version: 6.00 Build 0)  -->
<svg version="1.1" id="Capa_1" xmlns="http://www.w3.org/2000/svg" xmlns:xlink="http://www.w3.org/1999/xlink" x="0px" y="0px"
	 viewBox="0 0 22.29 22.69" style="enable-background:new 0 0 22.29 22.69;" xml:space="preserve">
<style type="text/css">
	.st0{fill:#FFFFFF;}
</style>
<g>
	<path class="st0" d="M11.29,0.23c-6.08,0-11,4.92-11,11s4.92,11,11,11s11-4.92,11-11S17.36,0.23,11.29,0.23z M9.31,14.9
		C8.01,15.6,6.38,15.72,5.09,15c-0.98-0.54-1.98-1.65-2.02-3.6c0,0-0.18-1.59,0.96-2.98c0.96-1.17,2.52-1.64,4-1.35
		c1.03,0.21,2.14,0.77,2.5,2.19c0,0,0.3,1.08,0.3,2.32H4.79c0,0-0.49,2.53,2.38,2.79c0,0,1.63,0.21,2.15-1.55h1.51
		C10.83,12.83,10.88,14.05,9.31,14.9z M17.55,15.6l-2.34-3.47l-2.19,3.47h-1.96l3.32-4.72l-3.06-4.02h1.93l2,2.92l2.08-2.92h1.66
		l-2.76,3.98l3.28,4.76H17.55z"/>
	<path class="st0" d="M6.98,8.15C4.9,8.3,4.64,10.37,4.64,10.37h4.68C8.98,7.92,6.98,8.15,6.98,8.15z"/>
</g>
</svg>
