<?xml version="1.0" encoding="utf-8"?>
<!-- Generator: Adobe Illustrator 27.0.1, SVG Export Plug-In . SVG Version: 6.00 Build 0)  -->
<svg version="1.1" id="Capa_1" xmlns="http://www.w3.org/2000/svg" xmlns:xlink="http://www.w3.org/1999/xlink" x="0px" y="0px"
	 viewBox="0 0 22.29 22.69" style="enable-background:new 0 0 22.29 22.69;" xml:space="preserve">
<style type="text/css">
	.st0{fill:#FEFEFE;}
	.st1{fill:#FFFFFF;}
</style>
<path class="st1" d="M11.69,22.08c-0.01,0-0.03,0-0.04,0c-0.02-0.06-0.04-0.11-0.05-0.17c-0.04-0.16-0.09-0.31-0.13-0.47
	c-0.01-0.02-0.01-0.03-0.02-0.05c0.01-0.01,0.01-0.02-0.01-0.03c-0.04-0.25-0.09-0.5-0.13-0.75c-0.02-0.21-0.02-0.42-0.08-0.63
	c-0.03-0.69-0.1-1.38-0.08-2.07c0.01-0.31,0-0.61-0.01-0.92c0-0.02,0-0.03,0-0.05c-0.02-0.14-0.06-0.29-0.07-0.43
	c0-0.2-0.1-0.23-0.28-0.23c-1.93,0.01-3.86,0-5.79,0.01c-0.49,0-0.97-0.02-1.42-0.23l0,0C3.53,16.05,3.49,16.02,3.44,16l-0.01,0
	c-0.02-0.02-0.05-0.03-0.07-0.05l0,0c-0.02-0.01-0.03-0.02-0.05-0.03l-0.01,0c-0.02-0.02-0.05-0.04-0.07-0.06
	c-0.51-0.43-0.8-0.97-0.86-1.63c0-0.13,0-0.25,0-0.38c0-0.01,0-0.03,0-0.04c0-0.21,0-0.42,0-0.63c0-0.01,0-0.03,0-0.04
	c0-0.18,0-0.36,0-0.54c0.02-0.24,0.02-0.48,0-0.72c0-0.18,0-0.36,0-0.54c0-0.01,0-0.03,0-0.04c0-0.21,0-0.42,0-0.63
	c0-0.01,0-0.03,0-0.04c0-0.18,0-0.36,0-0.54c0.02-0.24,0.02-0.48,0-0.72c0-0.18,0-0.36,0-0.54c0-0.01,0-0.03,0-0.04
	c0-0.21,0-0.42,0-0.63c0-0.01,0-0.03,0-0.04c0-0.18,0-0.36,0-0.55c0-0.01,0-0.03,0-0.04c0-0.21,0-0.42,0-0.63c0-0.01,0-0.03,0-0.04
	c0-0.18,0-0.36,0-0.55c0-0.01,0-0.03,0-0.04c0-0.21,0-0.42,0-0.63c0-0.01,0-0.03,0-0.04c0-0.18,0-0.36,0-0.55c0-0.01,0-0.03,0-0.04
	C2.4,4.79,2.42,4.6,2.44,4.41C2.52,4.22,2.6,4.03,2.68,3.85C2.69,3.84,2.7,3.83,2.7,3.81l0,0c0.11-0.14,0.22-0.28,0.33-0.43
	c0.1-0.08,0.2-0.16,0.3-0.25C3.46,3.07,3.58,3,3.71,2.93l0.02,0c0,0,0.01-0.01,0.01-0.01c0.04-0.02,0.08-0.03,0.12-0.05
	C4.01,2.84,4.15,2.8,4.29,2.76c0.18,0,0.36-0.01,0.54-0.01c0.21,0,0.42,0,0.63,0c0.21,0,0.42,0,0.63,0c0.21,0,0.42,0,0.63,0
	c0.21,0,0.42,0,0.63,0c0.21,0,0.42,0,0.63,0c0.21,0,0.42,0,0.63,0c0.21,0,0.42,0,0.63,0c0.21,0,0.42,0,0.63,0c0.21,0,0.42,0,0.63,0
	c0.21,0,0.42,0,0.63,0c0.21,0,0.42,0,0.63,0c0.21,0,0.42,0,0.63,0c0.21,0,0.42,0,0.63,0c0.21,0,0.42,0,0.63,0
	c0.17,0.01,0.34,0.03,0.51,0.04c0.39,0.12,0.39,0.12,0.65-0.2c0.03-0.04,0.07-0.09,0.1-0.13c0.2-0.22,0.4-0.45,0.6-0.67
	c0.01-0.01,0.02-0.02,0.03-0.03c0.4-0.34,0.79-0.69,1.26-0.93c0.2-0.07,0.39-0.14,0.59-0.22c0.25-0.01,0.5-0.02,0.74,0
	c0.17,0.07,0.34,0.14,0.51,0.21c0.39,0.26,0.68,0.61,0.91,1.01c0.01,0.03,0,0.07,0.04,0.08c0,0.01,0.01,0.03,0.02,0.04
	c0,0.02,0.01,0.03,0.01,0.05c0.02,0.05,0.04,0.09,0.06,0.14c-0.01,0.01,0,0.02,0.01,0.03c0,0.04,0,0.07,0.04,0.09
	c-0.01,0.01,0,0.02,0.01,0.03c0,0.04,0,0.07,0.04,0.09c0,0.02,0,0.05,0.01,0.07c0.03,0.17,0.06,0.34,0.08,0.51
	c0.05,0.46,0,0.92-0.04,1.38c-0.01,0.01-0.01,0.02,0,0.03c-0.01,0.02-0.01,0.03-0.02,0.05c-0.03,0.17-0.06,0.34-0.1,0.51
	c-0.06,0.22-0.12,0.44-0.18,0.66c-0.05,0.16-0.1,0.31-0.16,0.47c-0.01,0.01-0.01,0.03-0.01,0.04c-0.03,0.04-0.06,0.07-0.05,0.13
	c-0.01,0.03-0.02,0.06-0.03,0.09c-0.07,0.18-0.14,0.36-0.21,0.54C19,7.08,18.9,7.29,18.81,7.5c0,0.01-0.01,0.03-0.01,0.04
	c-0.01,0.01-0.01,0.02-0.01,0.04l0,0c-0.02,0.03-0.03,0.06-0.05,0.09l0-0.01c-0.02,0.03-0.03,0.06-0.05,0.09c0,0,0-0.01,0,0
	c-0.07,0.1-0.13,0.22-0.17,0.34c-0.11,0.22-0.23,0.45-0.34,0.67c-0.08,0.09-0.12,0.19-0.16,0.3c-0.08,0.09-0.13,0.19-0.17,0.29
	c-0.14,0.21-0.27,0.44-0.38,0.67c-0.01,0.02-0.02,0.03-0.03,0.05c-0.13,0.19-0.25,0.38-0.35,0.58c-0.01,0.02-0.02,0.03-0.03,0.05
	c-0.02,0.03-0.03,0.05-0.05,0.08c-0.06,0.04-0.07,0.14-0.16,0.15c-0.48,0.16-0.94,0.34-1.39,0.58c-0.44,0.17-0.85,0.42-1.29,0.65
	c0.05,0.01,0.07,0.02,0.09,0.02c0.4-0.16,0.83-0.25,1.24-0.38c0.24-0.06,0.48-0.11,0.72-0.17c0.08,0.03,0.15-0.06,0.24-0.02
	c-0.05,0.09-0.1,0.16-0.14,0.24c-0.07,0.11-0.15,0.22-0.22,0.33c-0.1,0.11-0.19,0.24-0.26,0.37c-0.31,0.42-0.61,0.84-0.92,1.26
	c-0.17,0.21-0.34,0.42-0.51,0.63c-0.05-0.01-0.08,0.03-0.11,0.05c-0.25,0.11-0.48,0.24-0.68,0.41c-0.08,0.02-0.14,0.07-0.2,0.13
	c-0.17,0.1-0.31,0.22-0.44,0.37c-0.08,0.05-0.15,0.12-0.2,0.2c-0.35,0.33-0.57,0.74-0.78,1.16c-0.01-0.01-0.02-0.02-0.04-0.03
	c0.02-0.13,0.04-0.27,0.06-0.4c0.04-0.18,0.08-0.37,0.12-0.55c0.06-0.26,0.12-0.53,0.18-0.79c0.11-0.39,0.22-0.79,0.33-1.18
	c0.06-0.21,0.15-0.41,0.18-0.63c0.1-0.2,0.15-0.42,0.2-0.63c0.03-0.05,0.05-0.1,0.05-0.16c0.07-0.15,0.13-0.31,0.16-0.47
	c0.09-0.19,0.15-0.39,0.21-0.59c0.1-0.22,0.19-0.44,0.25-0.67c0.01-0.01,0.01-0.02,0.01-0.03c0.1-0.19,0.19-0.39,0.25-0.6
	c0.13-0.23,0.22-0.47,0.3-0.71c0.03-0.01,0.03-0.02,0.03-0.05c0.01-0.01,0.01-0.02,0.01-0.04c0,0,0,0,0,0
	c0.09-0.15,0.16-0.3,0.21-0.47l0,0c0.03-0.02,0.04-0.05,0.04-0.09l0,0c0.02-0.04,0.04-0.09,0.07-0.13c0.06-0.14,0.13-0.28,0.19-0.42
	c0.07-0.1,0.12-0.22,0.16-0.34c0.04-0.07,0.08-0.14,0.11-0.21c0.11-0.24,0.23-0.47,0.34-0.71c0.05-0.08,0.11-0.16,0.13-0.25
	c0.06-0.11,0.12-0.22,0.17-0.33c0.11-0.2,0.22-0.4,0.33-0.6c0.06-0.11,0.12-0.22,0.18-0.33c0.09-0.11,0.16-0.24,0.22-0.38
	c0.14-0.2,0.27-0.41,0.37-0.63c0.14-0.21,0.28-0.42,0.41-0.64c0.31-0.42,0.6-0.86,0.94-1.25c-0.41,0.35-0.79,0.73-1.12,1.16
	c-0.12,0.1-0.21,0.22-0.29,0.35c-0.08,0.09-0.17,0.17-0.22,0.28c-0.34,0.41-0.65,0.85-0.92,1.31c-0.05,0.03-0.07,0.08-0.08,0.13
	c-0.13,0.17-0.24,0.35-0.34,0.54l0,0c-0.02,0.03-0.03,0.06-0.05,0.08c-0.24,0.35-0.43,0.72-0.62,1.1c-0.24,0.42-0.46,0.85-0.64,1.29
	c-0.22,0.43-0.41,0.86-0.58,1.31c-0.1,0.2-0.19,0.41-0.25,0.63c-0.01,0.01-0.01,0.02-0.01,0.03c-0.01,0.02-0.02,0.04-0.03,0.06
	c-0.16,0.35-0.26,0.72-0.37,1.09c-0.07,0.23-0.13,0.45-0.2,0.68c-0.01,0.01-0.01,0.01-0.01,0.02c0,0.03-0.01,0.06-0.01,0.09
	c-0.14,0.34-0.2,0.7-0.28,1.06c-0.07,0.25-0.14,0.5-0.17,0.75c-0.07,0.18-0.08,0.37-0.12,0.55c-0.09,0.46-0.19,0.91-0.22,1.38
	c-0.06,0.17-0.06,0.34-0.07,0.51c-0.03,0.19-0.06,0.38-0.05,0.58c-0.07,0.09-0.03,0.2-0.03,0.3c-0.07,0.84-0.08,1.68,0,2.52
	c0.01,0.19,0.02,0.37,0.07,0.55c0.02,0.4,0.14,0.78,0.25,1.17C11.77,22.03,11.7,22.02,11.69,22.08z M13.25,4.94
	c0.08-0.14,0.15-0.27,0.23-0.41c-0.16,0-0.31,0-0.45,0c-0.21,0-0.42,0-0.63,0c-0.21,0-0.42,0-0.63,0c-0.21,0-0.42,0-0.63,0
	c-0.21,0-0.42,0-0.63,0c-0.21,0-0.42,0-0.63,0c-0.21,0-0.42,0-0.63,0c-0.21,0-0.42,0-0.63,0c-0.21,0-0.42,0-0.63,0
	c-0.21,0-0.42,0-0.63,0c-0.21,0-0.42,0-0.63,0c-0.21,0-0.42,0-0.63,0c-0.21,0-0.42,0-0.63,0c-0.21,0-0.42,0-0.63,0
	C4.39,4.51,4.29,4.56,4.2,4.85C4.13,4.89,4.16,4.95,4.16,5c0,3.03,0,6.06,0,9.08c0,0.18,0.07,0.32,0.24,0.4
	c0.12,0.07,0.25,0.07,0.38,0.07c1.87,0,3.74,0,5.6,0c0.04,0,0.08,0,0.13,0c0.09,0,0.11-0.03,0.08-0.11
	c-0.08-0.23-0.15-0.47-0.29-0.68c-0.03-0.18,0.05-0.36,0.04-0.54c0.05-0.22,0.11-0.45,0.16-0.67c0.01-0.01,0.01-0.03,0.01-0.04
	c0.07-0.02,0.07,0.04,0.1,0.08c0.21,0.37,0.43,0.74,0.61,1.13c0.01-0.05,0.01-0.09,0-0.13c-0.13-0.48-0.27-0.96-0.49-1.41
	c-0.04-0.08-0.08-0.16-0.05-0.26c0.08-0.24,0.15-0.48,0.23-0.71c0.05-0.06,0.02-0.17,0.11-0.21c0.07,0.13,0.14,0.25,0.21,0.38
	c0.13,0.26,0.26,0.52,0.39,0.79c-0.02-0.33-0.12-0.64-0.24-0.94c-0.05-0.14-0.1-0.29-0.16-0.43c-0.07-0.15-0.1-0.29-0.05-0.45
	c0.09-0.31,0.15-0.62,0.22-0.93c0.07-0.21,0.13-0.42,0.2-0.63c0.14-0.4,0.29-0.81,0.43-1.21c0.09-0.2,0.19-0.39,0.24-0.6
	c0.06-0.13,0.11-0.26,0.17-0.39c0.06-0.07,0.09-0.16,0.12-0.25c0.11-0.24,0.23-0.47,0.34-0.71c0.04-0.08,0.09-0.17,0.13-0.25
	C13.12,5.23,13.2,5.09,13.25,4.94z"/>
</svg>
